<?xml version="1.0" encoding="UTF-8" standalone="no"?>
<!-- Created with Keyshape -->
<svg xmlns="http://www.w3.org/2000/svg" xmlns:xlink="http://www.w3.org/1999/xlink" viewBox="0 0 1920 290" text-rendering="geometricPrecision" shape-rendering="geometricPrecision" opacity="1" height="290" width="1920" style="background: rgba(0,0,0,0.00); white-space: pre;">
    <defs>
        <linearGradient id="Gradient-0" x1="-963.5" y1="49" x2="-960" y2="657.5" gradientUnits="userSpaceOnUse">
            <stop offset="0" stop-color="#ffffff"/>
            <stop offset="1" stop-color="#73bcff"/>
        </linearGradient>
        <linearGradient id="Gradient-1" x1="0.5" y1="0" x2="0.5" y2="1">
            <stop offset="0" stop-color="#003d7a"/>
            <stop offset="1" stop-color="#001e4a"/>
        </linearGradient>
        <linearGradient id="Gradient-2" x1="946" y1="49.0356" x2="946" y2="563" gradientUnits="userSpaceOnUse">
            <stop offset="0" stop-color="#009fff"/>
            <stop offset="1" stop-color="#6ecaff"/>
        </linearGradient>
        <linearGradient id="Gradient-3" x1="627.588" y1="815.115" x2="627.588" y2="1097.21" gradientUnits="userSpaceOnUse">
            <stop offset="0" stop-color="#001a33"/>
            <stop offset="1" stop-color="#003e7c"/>
        </linearGradient>
        <linearGradient id="Gradient-4" x1="0.940344" y1="0.437413" x2="0.358125" y2="0.57987">
            <stop offset="0" stop-color="#000000" stop-opacity="0"/>
            <stop offset="1" stop-color="#000000"/>
        </linearGradient>
        <linearGradient id="Gradient-5" x1="0.5" y1="0" x2="0.5" y2="1">
            <stop offset="0" stop-color="#ffffff" stop-opacity="0"/>
            <stop offset="1" stop-color="#ffffff" stop-opacity="0.6"/>
        </linearGradient>
        <linearGradient id="Gradient-6" x1="0.815291" y1="0.263453" x2="0.184709" y2="0.902064">
            <stop offset="0" stop-color="#ffffff"/>
            <stop offset="1" stop-color="#ff9f00" stop-opacity="0"/>
        </linearGradient>
        <linearGradient id="Gradient-7" x1="362.5" y1="554.5" x2="675.5" y2="390.5" gradientUnits="userSpaceOnUse">
            <stop offset="0" stop-color="#000000" stop-opacity="0"/>
            <stop offset="1" stop-color="#000000"/>
        </linearGradient>
        <mask id="Mask-1">
            <path fill="#ffffff" stroke="none" d="M364.123,-186.007C364.123,-186.007,162.856,182.673,0,182.673C-162.856,182.673,-216.877,182.673,-216.877,182.673C-108.435,70.4784,-21.6552,-45.4448,42.123,-165.327C42.123,-165.327,364.123,-186.007,364.123,-186.007Z" transform="translate(224.877,186.327)"/>
        </mask>
        <mask id="Mask-2">
            <path fill="#ffffff" stroke="none" d="M364.123,-186.007C364.123,-186.007,162.856,182.673,0,182.673C-162.856,182.673,-216.877,182.673,-216.877,182.673C-108.435,70.4784,-21.6552,-45.4448,42.123,-165.327C42.123,-165.327,364.123,-186.007,364.123,-186.007Z" transform="translate(224.877,186.327)"/>
        </mask>
    </defs>
    <title>Home</title>
    <g transform="translate(832.74,814.48) translate(-1104.74,-294.482)">
        <g id="Moun" transform="translate(1346,-48.498) translate(-1074,-411.5)">
            <g id="Layer-1-2"/>
            <g id="Layer-2-2"/>
            <path d="M0,-228C0,-228,-71.5,-285.5,-71.5,-285.5C-71.5,-285.5,-512.5,-94,-512.5,-94C-512.5,-94,-678.5,-214,-678.5,-214C-678.5,-214,-934.5,-110,-934.5,-110C-934.5,-110,-1038.5,-195,-1038.5,-195C-1038.5,-195,-1920,330,-1920,330C-1920,330,-1920,657.5,-1920,657.5C-1920,657.5,0,657.5,0,657.5" fill="url(#Gradient-0)" fill-opacity="1" fill-rule="nonzero" stroke="#000000" stroke-linecap="square" stroke-linejoin="miter" stroke-miterlimit="4" stroke-opacity="1" stroke-width="0" transform="translate(1920,285.5)"/>
            <g id="Layer-4-2" transform="translate(1920,57.5)">
                <g id="Object-6" opacity="0.1">
                    <path fill="none" stroke="#000000" stroke-opacity="1" stroke-width="1" stroke-miterlimit="4" stroke-linecap="square" stroke-linejoin="miter"/>
                </g>
            </g>
            <g id="Layer-5-2" transform="translate(1920,57.5)">
                <g id="Object-7" opacity="0.1">
                    <path fill="#000000" d="M0,0C0,0,-71.5,-57.5,-71.5,-57.5C-40.5,-28.5,-28.162,9.262,4.5,37" fill-opacity="1" fill-rule="nonzero" stroke="#000000" stroke-opacity="1" stroke-width="0" stroke-miterlimit="4" stroke-linecap="square" stroke-linejoin="miter"/>
                </g>
            </g>
            <g id="Layer-6-2" transform="translate(1920,57.5)">
                <g id="Object-8" opacity="0.1">
                    <path fill="#000000" d="M218,668.5C218,668.5,-679,13.5,-679,13.5C-536.5,281.5,-24.5,440,228,715.5" fill-opacity="1" fill-rule="nonzero" stroke="#000000" stroke-opacity="1" stroke-width="0" stroke-miterlimit="4" stroke-linecap="square" stroke-linejoin="miter"/>
                </g>
            </g>
            <g id="Layer-7-2" transform="translate(1920,57.5)">
                <g id="Object-9" opacity="0.1">
                    <path fill="#000000" d="M-145,769.5C-145,769.5,-1038,33.5,-1038,33.5C-1186.5,451.5,-387.5,541,-135,816.5" fill-opacity="1" fill-rule="nonzero" stroke="#000000" stroke-opacity="1" stroke-width="0" stroke-miterlimit="4" stroke-linecap="square" stroke-linejoin="miter"/>
                </g>
            </g>
        </g>
        <g transform="translate(1455.64,195.181) translate(-747.644,-348.145)">
            <path id="path-2" d="M1496,696.5L0.711567,624.21C283.712,334.919,539.212,152.146,767.212,75.8916C995.212,-0.362708,1238.14,-18.9932,1496,20L1496,696.5Z" transform="translate(-0.711567,-0.210363)"/>
            <use xlink:href="#path-2" fill="url(#Gradient-1)" transform="translate(-0.711567,-0.210363)"/>
        </g>
        <path id="Oval" d="M841.964,376.281C887.646,376.236,918.989,346.506,930.055,308.217C930.775,305.724,924.117,306.068,910.081,309.248C919.17,303.697,924.709,299.637,926.696,297.068C931.772,290.507,933.66,284.718,933.662,282.718C933.681,262.582,927.225,243.968,916.264,228.847C914.834,226.875,908.045,226.881,895.898,228.867C902.156,220.435,904.563,215.574,903.121,214.283C886.936,199.806,865.571,191.017,842.143,191.04C791.55,191.089,750.496,232.214,750.447,282.896C750.398,333.578,796.282,376.325,841.964,376.281Z" fill="#080F00" fill-rule="evenodd" stroke="none" stroke-width="1" transform="translate(1941.44,-40.3058) rotate(140)"/>
        <path id="Rectangle-Copy-2" d="M1312.77,142.843C1471.75,143.66,1664.82,147.879,1892,155.5L1892,563L0,551L0,383.607C285.889,297.681,453.889,246.812,504,231C505.091,230.656,506.606,230.261,508.473,229.775C515.732,227.885,528.313,224.609,542,217.5C546.622,215.099,557.955,208.266,576,197C575.099,204.029,578.265,205.862,585.5,202.5C590.199,200.316,600.033,193.316,615,181.5C615.589,190.616,617.422,194.616,620.5,193.5C630.476,189.882,637.143,185.882,640.5,181.5L644.5,191.5C654.181,189.838,663.585,188.233,672.712,186.684C681.586,182.945,688.249,179.823,692.7,177.32C698.274,174.185,702.536,170.808,705.477,167.193C705.756,166.85,706.259,166.798,706.605,167.076C706.742,167.189,706.841,167.345,706.873,167.521L709.545,179.219C722.931,173.045,735.22,165.378,746.403,156.223C756.472,147.982,763.127,140.596,766.368,134.065C766.508,134.056,766.627,134.042,766.732,134.03C766.971,134.003,767.132,133.984,767.269,134.055C767.399,134.119,767.488,134.247,767.498,134.391L769.249,160.515C773.38,160.403,780.721,158.001,791.281,153.305C800.66,149.134,809.524,144.511,817.881,139.432C818.063,139.32,818.318,139.377,818.43,139.567C818.53,139.725,818.499,139.932,818.365,140.062L800.516,157.42L826.839,152.379C838.943,148.121,847.826,144.663,853.497,142.001C859.169,139.339,863.338,136.672,866.004,133.998L884.608,143.924C893.271,141.509,902.021,137.961,910.854,133.277C919.072,128.92,925.212,124.723,929.273,120.684C929.587,120.373,930.093,120.374,930.405,120.687C930.487,120.77,930.549,120.869,930.589,120.978L935.255,133.798C941.777,132.404,947.229,130.779,951.611,128.923C955.762,127.163,958.972,125.188,961.241,122.997C961.471,122.775,961.812,122.711,962.107,122.835L972.755,127.302C978.514,124.997,982.465,123.158,984.61,121.788C986.589,120.523,988.672,118.606,990.857,116.039C991.144,115.702,991.648,115.661,991.985,115.947C991.998,115.96,992.012,115.972,992.025,115.984L996.347,120.198C1001.07,117.137,1004.6,114.685,1006.93,112.84C1008.85,111.312,1011.66,111.634,1013.18,113.562C1013.98,114.57,1014.31,115.875,1014.08,117.14L1013.85,118.365C1015.88,117.763,1018.12,116.835,1020.59,115.582C1022.99,114.364,1026.81,111.466,1032.06,106.887C1032.32,106.657,1032.7,106.625,1033,106.808L1042.73,112.763C1050.93,109.747,1058.2,106.479,1064.56,102.959C1070.28,99.7879,1074.55,96.8045,1077.37,94.0096C1077.68,93.6986,1078.19,93.6996,1078.5,94.0128C1078.58,94.0957,1078.64,94.1943,1078.68,94.3033L1082.31,104.252C1087.94,102.069,1092.12,100.359,1094.87,99.1245C1097.46,97.9553,1101.08,96.1613,1105.74,93.7421C1106.13,93.5374,1106.62,93.6907,1106.82,94.0827C1106.84,94.1139,1106.85,94.1452,1106.86,94.1781L1107.95,97.171C1116.7,91.5362,1123.21,87.261,1127.48,84.3487C1131.15,81.8441,1134.07,79.7366,1136.23,78.027C1136.53,77.7869,1136.97,77.8371,1137.21,78.1403C1137.29,78.2443,1137.34,78.3704,1137.36,78.5016L1139.02,94.2965C1146.63,87.689,1152.22,82.578,1155.77,78.9621C1158.99,75.6891,1163.17,70.9835,1168.31,64.8466C1168.59,64.5083,1169.09,64.4632,1169.43,64.7462C1169.62,64.9089,1169.73,65.1525,1169.72,65.4053C1169.33,72.3185,1171.31,76.7024,1175.66,78.5541C1180.52,80.6238,1190.62,80.5117,1205.97,78.2171C1210.71,75.5144,1214.29,73.4012,1216.7,71.8778C1218.91,70.4824,1221.79,68.5407,1225.35,66.0543C1225.71,65.8005,1226.21,65.889,1226.46,66.2513C1226.48,66.2817,1226.5,66.3136,1226.52,66.3466L1226.53,66.3645C1226.54,66.3882,1226.55,66.4125,1226.56,66.4372C1227.24,68.3258,1229.5,69.6208,1233.34,70.3217C1237.87,71.1498,1244.4,71.1161,1252.95,70.2203C1262.6,65.4637,1269.59,61.7338,1273.91,59.0306C1277.97,56.4908,1282.28,53.2241,1286.85,49.2336C1287.18,48.9424,1287.68,48.9763,1287.97,49.3091C1288.04,49.3832,1288.09,49.4692,1288.12,49.5613L1291.75,59.5314C1296.09,58.3315,1299.33,57.3445,1301.45,56.5715C1303.57,55.7982,1306.7,54.4715,1310.82,52.5898L1323.27,55.5012Z" fill="url(#Gradient-2)" fill-rule="evenodd" stroke="none" stroke-width="1" transform="translate(1218,352.848) scale(-1,1) translate(-946,-352.848)"/>
        <path d="M87.4378,1097.01C87.0516,1097.07,86.6607,1097.14,86.2654,1097.2C85.9821,1097.24,86.3729,1097.18,87.4378,1097.01ZM788.09,847.259L789.515,842.865L787.126,816.059L772.183,815.115C767.719,818.059,764.322,820.177,761.99,821.47C759.658,822.763,756.078,824.511,751.249,826.719L745.148,815.712C745.107,815.638,745.052,815.571,744.987,815.517C744.691,815.268,744.25,815.306,744.001,815.6C739.313,821.165,734.797,825.821,730.452,829.569C727.579,832.049,719.869,836.481,707.322,842.865C691.396,848.06,680.955,849.438,676.001,846.999C671.21,844.642,669.018,837.472,669.423,825.49C669.427,825.362,669.397,825.234,669.333,825.122C669.143,824.786,668.715,824.667,668.379,824.857C637.343,842.417,618.862,850.487,612.936,849.068C607.418,847.745,604.341,842.883,603.704,834.477C603.687,834.253,603.563,834.05,603.37,833.933C603.04,833.732,602.61,833.835,602.409,834.166C597.341,842.479,593.18,848.874,589.926,853.349C586.422,858.171,580.827,865.092,573.141,874.112L568.421,856.164C568.388,856.035,568.317,855.919,568.22,855.828C567.936,855.565,567.493,855.583,567.23,855.866C565.011,858.264,561.941,861.289,558.02,864.944C553.564,869.098,546.749,875.238,537.576,883.366L535.428,875.554C535.382,875.388,535.276,875.244,535.131,875.151C534.805,874.942,534.372,875.037,534.164,875.362C531.407,879.663,527.595,883.913,522.724,888.112C517.342,892.753,512.778,895.513,509.033,896.39L502.933,885.384C502.883,885.295,502.814,885.216,502.731,885.157C502.419,884.929,501.981,884.999,501.754,885.312C498.989,889.125,494.475,893.46,488.213,898.317C481.446,903.565,473.567,908.7,464.574,913.725L440.68,924.288C439.099,925.967,436.987,927.76,434.34,929.667C431.695,931.573,429.248,933.067,427,934.146L427.509,919.657C427.517,919.432,427.416,919.217,427.239,919.08C426.934,918.842,426.493,918.898,426.256,919.203C422.867,923.567,420.118,926.884,418.008,929.151C415.629,931.708,411.96,935.191,407.004,939.601L401.047,935.462C401.036,935.454,401.026,935.448,401.015,935.441C400.686,935.238,400.255,935.34,400.052,935.668C397.913,939.136,395.781,941.804,393.656,943.673C391.405,945.652,387.136,948.515,380.852,952.258L367.559,949.152C367.289,949.089,367.007,949.191,366.84,949.412C364.587,952.4,361.17,955.32,356.591,958.17C351.827,961.136,345.78,964.042,338.452,966.888L327.806,963.445C327.533,963.357,327.234,963.445,327.051,963.665C324.276,967.017,318.337,972.093,309.234,978.896C299.791,985.951,293.526,994.467,290.436,1004.45C284.918,1008.19,280.324,1010.89,276.654,1012.54C272.983,1014.2,270.279,1014.8,268.542,1014.33L239.594,1041.68L248.971,1021.7C240.13,1029.77,233.194,1035.45,228.164,1038.74C223.134,1042.03,215.028,1046.19,203.847,1051.22L196.661,1018.86C194.671,1027.46,187.978,1038.07,176.582,1050.69C165.187,1063.31,155.309,1073.62,146.949,1081.62L125.289,1072.94C122.594,1078.22,117.919,1083.48,111.267,1088.7C109.582,1090.03,101.572,1094.65,87.4378,1097.01C104.573,1094.29,296.254,1064.06,662.478,1006.3C676.619,1009.26,691.627,1012.01,707.5,1014.5C781.688,1026.15,935.521,1031.65,1169,1031L1167,825.5C1017.41,830.003,891.102,837.255,788.09,847.259Z" fill="url(#Gradient-3)" fill-rule="evenodd" stroke="none" stroke-width="1" transform="translate(1025,-561) skewX(0.846154) skewY(0.846154)"/>
        <g id="Trees" fill="none" fill-rule="evenodd" stroke="none" stroke-width="1" transform="translate(958,393)">
            <path id="Oval-2" d="M183.247,222.348C185.144,215.776,167.557,216.664,130.484,225.013C154.481,210.399,169.101,199.707,174.345,192.938C187.739,175.647,192.71,160.386,192.71,155.112C192.71,102.013,175.608,52.9079,146.612,13.0046C142.83,7.79942,124.896,7.79942,92.8101,13.0046C109.32,-9.21577,115.668,-22.0292,111.854,-25.4356C69.0626,-63.6551,154.113,323.29,183.247,222.348Z" fill="#080F00" transform="translate(142.76,105.552) rotate(-74) translate(-142.76,-105.552)"/>
            <path id="Oval-Copy" d="M338.191,157.993C330.384,147.249,298.236,112.129,290.364,105.098C231.481,52.5064,378.091,212.901,338.191,157.993Z" fill="#080F00" transform="translate(310.701,131.981) rotate(-50) translate(-310.701,-131.981)"/>
            <path id="Oval-Copy-2" d="M362.465,248.225C352.418,223.349,400.826,169.688,350.91,142.978C309.463,120.8,301.352,53.9402,272.219,12.3139C209.042,-77.9545,387.081,309.173,362.465,248.225Z" fill="#000000" transform="translate(316.241,126.684) rotate(-50) translate(-316.241,-126.684)"/>
        </g>
        <path id="Path-7" d="M525.944,297.722L627.064,257.449L627.064,247.209L525.944,287.482Z" fill="#00408B" fill-rule="evenodd" stroke="none" stroke-width="1" transform="translate(264,0)"/>
        <path id="Path-7-Copy" d="M525.944,287.482L627.064,247.209L379.404,222.08L293.12,251.442Z" fill="#002858" fill-rule="evenodd" stroke="none" stroke-width="1" transform="translate(264,0)"/>
        <path id="Path-3-Copy" d="M563.198,196.134C599.397,177.203,627.078,163.626,646.242,155.404C665.406,147.182,694.669,136.327,734.032,122.84L755.898,81.5659C694.268,101.549,653.936,117.968,634.899,130.823C615.862,143.679,591.962,165.449,563.198,196.134Z" fill="url(#Gradient-4)" fill-opacity="0.15" fill-rule="evenodd" stroke="none" stroke-width="1" transform="translate(784.698,798.398) rotate(-90)"/>
        <path id="Path-2-Copy" d="M396.418,0.32C482.245,27.5446,546.044,40.1672,587.816,38.1879C629.049,36.2341,672.45,29.1035,718.017,16.796C718.7,16.6117,719.402,17.0155,719.587,17.698C719.627,17.847,719.64,18.0021,719.625,18.1558L702.402,195.076L702.402,195.076L274.502,236.636C273.183,236.764,272.01,235.799,271.882,234.48C271.805,233.692,272.121,232.918,272.727,232.409C294.45,214.174,317.012,184.064,340.413,142.08C366.105,95.9838,384.774,48.7305,396.418,0.32Z" fill="#000000" fill-rule="evenodd" stroke="none" stroke-width="1" transform="translate(757.086,118.873) scale(-1,1) translate(-493.086,-118.873)"/>
        <path id="Path-2" d="M197.44,137.097C231.258,92.5108,253.693,53.2764,264.747,19.3944L264.747,19.3944C265.4,17.394,267.541,16.2914,269.548,16.9218C292.438,24.1095,334.624,26.2453,396.106,23.3291C460.995,20.2513,525.544,12.5816,589.754,0.32C561.532,87.7919,526.441,159.247,484.48,214.685C443.949,268.234,392.135,319.107,329.038,367.303C324.723,370.599,319.417,372.334,313.988,372.225L0,365.919L0,365.919C3.46396,362.036,6.13063,359.063,8,357C99.9416,255.55,163.417,181.955,197.44,137.097Z" fill="#009FFF" fill-rule="evenodd" stroke="none" stroke-width="1" transform="translate(264,0)"/>
        <path id="Path-6" d="M-70,365.919L-70,365.919C-66.536,362.036,-63.8694,359.063,-62,357C29.9416,255.55,93.417,181.955,127.44,137.097C161.258,92.5108,256.946,51.882,268,18C268.069,26.0667,452.1,29.5346,523,11C492.285,108.717,324.57,339.516,196,372" fill="#000000" fill-opacity="0.1" fill-rule="evenodd" stroke="none" stroke-width="1" mask="url(#Mask-1)" transform="translate(264,0)"/>
        <path id="Path-77" d="M-180,365.919L-180,365.919C-176.536,362.036,-173.869,359.063,-172,357C-80.0584,255.55,-16.583,181.955,17.44,137.097C51.258,92.5108,257.946,51.882,269,18C268.68,16.2354,348.599,31.0387,420,22C294,98.5,179.216,337.249,86,372" fill="#000000" fill-opacity="0.1" fill-rule="evenodd" stroke="none" stroke-width="1" mask="url(#Mask-2)" transform="translate(264,0)"/>
        <g id="Main-4" fill="none" fill-rule="evenodd" stroke="none" stroke-width="1" transform="translate(720.769,-236.753)">
            <g id="Home-3" transform="translate(-508,-322)">
                <g id="Cloud" transform="translate(506,319)">
                    <g id="Group-8" transform="translate(1024.25,0)">
                        <path id="Path-81" d="M126.761,110.855C189.323,116.317,273.94,101.474,278.745,75.6967C283.55,49.919,189.297,22.2662,144.551,15.4063C99.8049,8.54638,22.5218,27.6797,17.7443,53.3118C12.9668,78.9439,64.1984,105.393,126.761,110.855Z" fill="url(#Gradient-5)" transform="translate(148.179,62.9905) rotate(-4) translate(-148.179,-62.9905)"/>
                        <path id="Path-9-Copy-3" d="M36.8796,65.1387C56.4986,68.6509,83.0339,59.1071,84.5406,42.5325C86.0473,25.9579,56.4905,8.1777,42.4585,3.76689C28.4265,-0.643913,4.19122,11.6585,2.69304,28.1394C1.19486,44.6204,17.2606,61.6265,36.8796,65.1387Z" fill="url(#Gradient-5)" transform="translate(43.5961,34.3627) rotate(-4) translate(-43.5961,-34.3627)"/>
                    </g>
                    <path id="Path-9-Copy-4" d="M731.571,172.096C750.352,173.715,775.754,169.316,777.197,161.675C778.639,154.035,750.345,145.84,736.912,143.807C723.479,141.773,709.893,148.273,708.459,155.87C707.025,163.467,712.79,170.477,731.571,172.096Z" fill="url(#Gradient-5)" transform="translate(742.75,157.93) rotate(-4) translate(-742.75,-157.93)"/>
                    <path id="Path-9-Copy-2" d="M160.551,219.247C183.041,221.211,213.459,215.875,215.186,206.608C216.913,197.342,183.031,187.401,166.946,184.935C150.86,182.469,123.078,189.347,121.361,198.561C119.644,207.776,138.06,217.284,160.551,219.247Z" fill="url(#Gradient-5)" transform="translate(168.25,202.041) rotate(-4) translate(-168.25,-202.041)"/>
                    <path id="Path-9-Copy" d="M79.0751,216.678C125.338,219.913,171.55,202.486,174.527,186.516C177.503,170.546,123.304,154.631,91.389,149.164C75.9497,146.52,49.0281,113.532,24.0898,124.748C-0.8484,135.964,0.536412,170.772,8.06033,186.641C15.5842,202.51,32.8127,213.443,79.0751,216.678Z" fill="url(#Gradient-5)" transform="translate(189.519,6.61814) rotate(4) scale(-1,1)"/>
                </g>
            </g>
        </g>
        <g id="Main-2" fill="none" fill-rule="evenodd" stroke="none" stroke-linecap="round" stroke-linejoin="round" stroke-width="1" transform="translate(272,0)">
            <g id="Home" transform="translate(-264,-516)">
                <g id="Camp" transform="translate(-8,517)">
                    <g id="Path-75">
                        <use stroke="#002B44" stroke-width="5.76"/>
                    </g>
                </g>
            </g>
        </g>
        <path id="Path-3-Copy-4" d="M180.564,444.331L273.713,426.792L285.776,421.76L179.2,421.76Z" fill="#000000" fill-rule="evenodd" stroke="none" stroke-width="1" transform="translate(264,0)"/>
        <path id="Path-3-Copy-2" d="M632.442,277.759L717.008,220.465L542.114,235.294Z" fill="#000000" fill-rule="evenodd" stroke="none" stroke-width="1" fill-opacity="1" transform="translate(893.561,249.112) scale(-1,1) translate(-629.561,-249.112)"/>
        <path id="Path-3-Copy-3" d="M566.545,370.273C538.869,352.617,517.331,337.358,501.932,324.495C486.533,311.633,471.533,296.373,456.934,278.717L320.024,296.866L566.545,370.273Z" fill="#000000" fill-rule="evenodd" stroke="none" stroke-width="1" transform="translate(707.284,324.495) scale(-1,1) translate(-443.284,-324.495)"/>
        <path id="Path-4" d="M589.754,0C565.924,77.2816,530.641,147.81,483.907,211.585C437.172,275.361,363.589,335.633,263.158,392.403L273.353,407.786L577.914,298.08C585.096,270.432,590.113,237.86,592.964,200.365C595.815,162.871,594.745,102.008,589.754,17.778C594.589,93.1964,599.334,146.453,603.988,177.549C608.58,208.227,615.93,241.358,626.04,276.944C626.233,277.624,626.941,278.018,627.621,277.825C627.69,277.805,627.757,277.78,627.821,277.749L717.008,235.294L717.008,235.294C690.615,212.611,665.957,179.84,643.033,136.981C625.892,104.932,611.638,71.3177,600.271,36.1373C597.715,28.2256,594.21,16.1798,589.754,0Z" fill="#72BCEB" fill-rule="evenodd" stroke="none" stroke-width="1" transform="translate(264,0)"/>
        <g id="Path-5" fill="none" fill-rule="evenodd" stroke="none" stroke-linecap="round" stroke-linejoin="round" stroke-width="1" transform="translate(264,0)">
            <use fill="black" fill-opacity="1" filter="none"/>
            <use stroke="#002B44" stroke-width="5.76"/>
        </g>
        <path id="Path-5-Copy-3" d="M592.116,3C567.926,50.2397,548.421,97.4096,465.699,202.252C410.551,272.147,347.985,337.585,278,398.566" fill="none" fill-rule="evenodd" stroke="url(#Gradient-6)" stroke-linecap="round" stroke-linejoin="round" stroke-width="2" transform="translate(264,0)"/>
        <path id="Path-5-Copy-2" d="M589.754,2.58239C565.565,49.8221,528.763,101.62,446.041,206.462C390.893,276.357,322.785,335.865,252.8,396.846L245.608,387.776" fill="none" fill-rule="evenodd" opacity="0.1" stroke="#000000" stroke-linecap="round" stroke-linejoin="round" stroke-opacity="1" stroke-width="5.76" transform="translate(264,0)"/>
        <path id="Path-5-Copy" d="M267.892,19.5341C278.423,29.9084,67.7412,329.489,8,363" fill="none" fill-rule="evenodd" stroke="#381900" stroke-linecap="round" stroke-linejoin="round" stroke-width="5.76" transform="translate(264,0)"/>
        <path id="Rectangle-2" d="M268.406,388.759L275.528,390.273L282.486,388.759L283.925,425.66L277.433,434.358L269.845,425.66L266.565,408.693L267.555,404.033L262.781,393.27Z" fill="#342000" fill-rule="evenodd" stroke="none" stroke-width="1" transform="translate(537.353,411.559) rotate(-12) translate(-273.353,-411.559)"/>
        <path id="Rectangle-Copy-11" d="M282.406,420.158C289.077,419.394,295.104,424.184,295.868,430.855C295.886,431.019,295.902,431.183,295.914,431.347L298.146,461.743L298.146,461.743L283.628,461.172L271.433,467.702L270.267,434.252C270.018,427.107,275.303,420.971,282.406,420.158Z" fill="#1F1F1F" fill-rule="evenodd" stroke="none" stroke-width="1" transform="translate(917.914,817.691) rotate(168)"/>
        <path id="Weed-2" d="M718,235.583C715.793,235.377,714.205,235.018,713.235,234.507C712.266,233.996,711.495,233.112,710.924,231.855L711.158,237.812C709.147,237.276,707.207,235.961,705.34,233.869C703.472,231.776,702.196,229.487,701.51,227L702.601,239.057C701.183,239.446,700.126,239.557,699.43,239.39C698.734,239.224,697.71,238.615,696.358,237.564L698.435,242.467L694.812,244.335L686.984,249.509C685.757,249.813,684.465,249.663,683.109,249.059C681.753,248.454,680.715,247.566,679.994,246.394L679.994,252.928C679.09,253.332,678.313,253.479,677.662,253.372C677.011,253.264,676.484,252.9,676.081,252.279L674.866,255.872C674.017,255.786,673.423,255.621,673.083,255.378C672.743,255.136,672.351,254.596,671.908,253.76L671.498,256.482C670.747,255.931,670.178,255.45,669.793,255.039C669.407,254.628,668.864,253.924,668.164,252.928L669.161,258.35C668.872,258.405,668.54,258.36,668.164,258.214C667.788,258.068,667.472,257.862,667.217,257.595L665.183,260.37C663.987,260.357,662.898,260.102,661.916,259.605C660.934,259.109,660.193,258.439,659.693,257.595L659.693,262.796C658.867,262.741,658.248,262.665,657.837,262.567C657.427,262.469,656.835,262.256,656.062,261.929L656.062,263.723C654.674,262.714,653.636,261.93,652.95,261.371C652.264,260.812,651.735,260.321,651.363,259.897L651.931,267.194C650.643,265.615,649.685,264.347,649.058,263.392C648.431,262.437,647.572,260.938,646.481,258.893C647.008,262.187,647.008,264.624,646.481,266.203C645.953,267.783,644.648,269.25,642.566,270.604C641.829,270.202,641.27,269.869,640.888,269.603C640.506,269.338,639.991,268.924,639.342,268.363C639.442,269.405,639.219,270.435,638.675,271.455C638.131,272.475,637.288,273.44,636.147,274.351C634.682,273.84,633.609,273.351,632.927,272.886C632.244,272.421,631.487,271.66,630.655,270.604L630.655,275.765C630.04,275.921,629.578,275.999,629.269,275.999C628.959,275.999,628.495,275.921,627.876,275.765L626.412,278.826L627.078,280.87L718,235.583Z" fill="#16A5FD" fill-rule="evenodd" stroke="none" stroke-width="1" transform="translate(264,0)"/>
        <path id="Weed-3" d="M608.245,317.644L605.052,314.413C603.918,315.704,601.567,317.007,598,318.322C592.651,320.295,588.972,320.233,588.148,320.1C584.98,319.588,582.464,318.704,580.598,317.446L581.364,323.403C574.793,322.865,568.457,321.549,562.357,319.456C556.256,317.362,552.085,315.072,549.844,312.585L553.412,324.641C548.779,325.029,545.326,325.139,543.053,324.972C540.781,324.805,537.436,324.196,533.021,323.144L539.803,328.048L527.97,329.913L502.402,335.08C498.393,335.383,494.173,335.232,489.745,334.626C485.316,334.021,481.924,333.132,479.57,331.96L479.572,338.493C476.618,338.896,474.079,339.043,471.953,338.934C469.827,338.826,468.105,338.462,466.787,337.841L462.821,341.433C460.048,341.346,458.106,341.181,456.996,340.937C455.885,340.694,454.606,340.155,453.159,339.318L451.821,342.04C449.366,341.488,447.509,341.006,446.25,340.595C444.99,340.184,443.216,339.48,440.927,338.484L444.186,343.905C443.242,343.96,442.156,343.915,440.928,343.769C439.7,343.622,438.67,343.416,437.837,343.149L431.193,345.922C427.288,345.908,423.73,345.652,420.521,345.155C417.312,344.658,414.892,343.987,413.261,343.143L413.262,348.343C410.561,348.288,408.54,348.211,407.199,348.113C405.859,348.015,403.926,347.801,401.401,347.473L401.402,349.268C396.865,348.257,393.476,347.473,391.234,346.914C388.992,346.354,387.264,345.863,386.05,345.439L387.906,352.735C383.698,351.155,380.57,349.887,378.521,348.932C376.473,347.976,373.666,346.476,370.102,344.431C371.827,347.725,371.827,350.162,370.103,351.74C368.379,353.319,364.117,354.785,357.317,356.137C354.911,355.735,353.084,355.401,351.837,355.135C350.589,354.869,348.906,354.456,346.788,353.894C347.112,354.936,346.385,355.966,344.608,356.985C342.831,358.004,340.079,358.969,336.352,359.879C331.567,359.366,328.06,358.877,325.832,358.411C323.603,357.945,321.129,357.184,318.41,356.128L318.411,361.288C316.404,361.444,314.895,361.521,313.884,361.521C312.873,361.521,311.357,361.442,309.335,361.286L304.554,364.346L306.728,366.389L608.245,317.644Z" fill="#16A5FD" fill-rule="evenodd" stroke="none" stroke-width="1" transform="translate(954.988,-178.702) rotate(-29) scale(-1,1)"/>
        <g id="Path" fill="none" fill-rule="nonzero" opacity="0.1" stroke="none" stroke-width="1" transform="translate(272,0)">
            <use fill="#000000"/>
            <use fill-opacity="0" fill="#00395B"/>
        </g>
        <g id="Path-3" fill="none" fill-rule="nonzero" stroke="none" stroke-width="1" transform="translate(272,0)"/>
        <g id="Path-8" fill="none" fill-rule="nonzero" opacity="0.1" stroke="none" stroke-width="1" transform="translate(272,0)">
            <use fill="#000000"/>
            <use fill-opacity="0" fill="#00395B"/>
        </g>
        <g id="Path-9" fill="none" fill-rule="nonzero" stroke="none" stroke-width="1" transform="translate(272,0)"/>
        <g id="Main" fill="none" fill-rule="evenodd" stroke="none" stroke-width="1" transform="translate(1016.8,285.145)">
            <g id="Home-Copy" fill-rule="nonzero" transform="translate(-743,-284)">
                <g id="Group-2" transform="translate(743,284.459)">
                    <path id="Path-10" d="M37,3.35064C37,3.35064,34.5497,11.1,31.5196,13.3784C30.1114,14.4411,28.5723,14.3065,27.1031,11.6662C26.3978,10.5188,26.0151,9.18098,26,7.81002C26.1395,2.62211,33.887,1.11399,33.887,1.11399C36.2414,0.3901,37,3.35064,37,3.35064Z" fill="#363340"/>
                    <path id="Path-11" d="M110.368,10.4213C110.097,10.893,109.786,11.3377,109.44,11.7498C107.583,13.9788,105.782,13.0882,104.032,10.1802C103.843,9.85212,103.653,9.51261,103.461,9.16161C101.251,4.92998,107.708,4,107.708,4C107.708,4,112.731,6.2782,110.368,10.4213Z" fill="#363340"/>
                    <path id="Path-12" d="M99.7546,13.3814C85.4666,16.3418,45.4209,23.872,35.6833,17.5315C28.984,13.1647,30.66,9.14364,33.4128,6.46449C35.5919,4.35916,38.4545,3.07749,41.4977,2.84464C52.3823,1.98695,88.43,-0.779814,100.185,0.211609C101.931,0.359169,103.139,0.585121,103.65,0.917133C104.798,1.69574,105.582,2.89472,105.827,4.24647C106.723,8.38807,104.06,12.4664,99.8623,13.3814L99.7546,13.3814Z" fill="#000000"/>
                    <path id="Path-13" d="M97.1445,9.85784C96.6799,7.68207,97.3954,5.42892,98.4407,3.46254C98.9063,2.55776,99.5094,1.72746,100.229,1C101.962,1.14566,103.161,1.3687,103.667,1.69643C104.807,2.465,105.585,3.64852,105.828,4.98284C106.717,9.07105,104.075,13.0968,99.9088,14C98.5046,12.9939,97.5221,11.5216,97.1445,9.85784Z" fill="#000000" opacity="0.1"/>
                    <path id="Path-14" d="M34,12.1575C34.076,10.8544,35.3942,10.0558,35.6882,8.77907C35.7878,8.35874,35.7878,7.87011,36.0723,7.58114C36.2867,7.40455,36.545,7.30548,36.812,7.29742C38.2377,7.02226,39.688,6.93759,41.1319,7.04522C42.0812,7.18847,43.0184,7.4169,43.9343,7.72825L48.5529,9.1416C48.6852,9.16933,48.8082,9.23655,48.9085,9.336C49.212,9.70379,48.6999,10.2397,48.2542,10.3028C47.3058,10.4289,46.4191,9.89819,45.4944,9.67227C44.271,9.37278,43.0002,9.61447,41.7531,9.50414C40.8521,9.43058,39.9701,9.17313,39.0691,9.10483C38.1633,8.97676,37.2473,9.23192,36.5038,9.81938C35.8067,10.4551,35.4985,11.6846,36.0296,12.499C36.5607,13.3133,36.5939,14.2013,35.3468,13.9596C34.5612,13.8033,33.9921,13.0417,34,12.1575Z" fill="#F5A623" opacity="0.250093"/>
                    <path id="Path-15" d="M39.7815,13.0766C40.3425,13.2032,40.951,13.0933,41.5406,13.1066C43.081,13.1399,44.3361,13.9898,45.8194,14.2465C46.8131,14.4131,47.8686,14.3098,48.8812,14.4298C49.6181,14.5164,50.3075,14.7231,51.0444,14.8464C53.3455,15.243,55.7607,14.8064,58,14.2765C57.8336,13.7865,56.9873,13.6099,56.2789,13.5365L44.7497,12.2033C43.3291,12.0056,41.8753,11.9517,40.4328,12.0434C40.0572,12.0734,39.2109,12.0434,39.0445,12.2767C38.8353,12.5866,39.4106,12.9966,39.7815,13.0766Z" fill="#F5A623" opacity="0.250093"/>
                    <path id="Path-16" d="M90.5126,4.68093C89.2274,4.59662,87.9963,4.25941,86.7247,4.0908C85.4531,3.92219,84.0462,3.94917,83,4.51232C85.0202,5.56106,87.6221,5.67571,90.0571,5.94211C90.3755,5.95793,90.6845,6.02955,90.959,6.15119C91.2326,6.28192,91.3591,6.53141,91.2701,6.76492C91.1078,7.07179,90.5576,7.10214,90.1157,7.10214C90.0205,7.25768,90.0148,7.43564,90.1001,7.59439C90.1853,7.75314,90.354,7.87874,90.5667,7.94181C91.0174,8.04584,91.5052,8.00936,91.9195,7.84064C92.3232,7.67391,92.7421,7.52856,93.1731,7.40563C94.0749,7.2033,95.0444,7.44273,95.9689,7.59785C96.8933,7.75297,97.9845,7.79006,98.6745,7.29772C98.8596,7.17588,98.9757,7.00585,98.9991,6.82225C99.0577,5.96909,96.1447,5.50373,95.324,5.19687C93.7638,4.6,92.19,4.79221,90.5126,4.68093Z" fill="#F5A623" opacity="0.250093"/>
                    <path id="Path-17" d="M36.5362,22.4222C36.3369,22.8007,35.5394,22.9751,34.4359,23C32.1424,22.9729,29.8597,22.6586,27.634,22.0635C26.1317,21.665,24.8752,21.1818,24.3142,20.6887C24.1651,20.564,24.0604,20.3882,24.0174,20.1905C23.6372,18.2229,29.6045,14.1332,29.9152,14.0934C30.5303,14.0122,31.1505,13.9839,31.7698,14.0087C38.0153,14.3076,37.2364,21.0822,36.5362,22.4222Z" fill="#363340"/>
                    <path id="Path-18" d="M26.9139,21.0917C26.5753,21.1365,19.4427,26.0416,21.3117,27.6849C23.1806,29.3282,32.7711,30.8769,33.5363,29.4179C34.3015,27.9588,35.1502,20.0658,26.9139,21.0917Z" fill="#363340"/>
                    <path id="Path-19" d="M110,10.9728C108.627,12.8042,107.294,12.0724,106,9.68322C106.625,9.35198,107.286,9.12215,107.964,9C108.329,9.20104,108.675,9.44915,108.994,9.73981C109.391,10.0744,109.732,10.4924,110,10.9728Z" fill="#000000" opacity="0.1"/>
                    <path id="Path-20" d="M109.361,15.4232C108.207,17.4216,107.077,18.1845,105.97,17.963C104.774,17.7267,103.606,16.3535,102.462,14.1632C100.247,9.92534,106.719,9,106.719,9C107.214,9.24476,107.682,9.54685,108.114,9.90073C109.412,10.9294,110.864,12.7998,109.361,15.4232Z" fill="#F5A623" opacity="0.250093"/>
                    <path id="Path-21" d="M105.84,27.4742C105.05,29.9136,101.168,30.603,98.3647,31.0738C97.5581,31.1793,96.759,31.3381,95.9727,31.5493C93.9171,32.2483,78.9485,32.2483,78.9485,32.2483L46.5213,32.2483C46.5213,32.2483,38.5792,34.4213,33.7766,31.3781C32.104,30.313,31.2911,29.167,31.0576,27.9212C30.9159,26.9321,31.0369,25.9224,31.4079,24.9969C31.6985,24.2128,32.0516,23.4542,32.4638,22.7287C32.9683,21.8253,33.5617,20.8743,34.1877,19.8757L34.2157,19.8329C37.201,15.1921,43.195,18.221,46.0074,17.9595C48.8199,17.6979,53.7253,17.1987,53.7253,17.1987C53.7253,17.1987,93.4079,14.5026,101.331,13.1094C101.717,13.0402,102.108,13.0036,102.499,13C108.988,13.0048,106.849,24.3407,105.84,27.4742Z" fill="#000000"/>
                    <path id="Path-22" d="M47,25.3616C45.0544,27.1032,42.0343,26.981,39.3257,26.9624L34.3962,26.9254C33.8203,26.8955,33.2424,26.943,32.6853,27.0662C32.1229,27.1988,31.6737,27.5468,31.48,28C31.34,27.9704,31.1956,27.937,31.0556,27.8962C30.9187,27.1254,31.0356,26.3385,31.3942,25.6173C32.1263,25.7085,32.8656,25.7556,33.6062,25.7581C34.6264,25.6803,35.5383,25.1874,36.5495,25.0466C37.985,24.8428,39.4205,25.369,40.8787,25.4394C42.9236,25.5358,45.0814,24.7279,47,25.3616Z" fill="#F5A623" opacity="0.250093"/>
                    <path id="Path-23" d="M78.4149,19.2284C78.7965,19.1816,79.1651,19.071,79.5019,18.9022C79.8267,18.682,80.1182,18.4242,80.3688,18.1354C80.9366,17.5946,81.6553,17.2023,82.4491,17C82.2101,17.7075,82.0602,18.6523,82.763,19.0335C83.1884,19.1807,83.6439,19.2429,84.0984,19.2157C84.5669,19.2581,85.0636,19.5504,84.9933,19.9529C84.923,20.3553,84.4264,20.474,84.0141,20.5417C82.5115,20.8579,80.9681,20.9862,79.427,20.923C77.9417,20.7959,76.4236,20.3214,74.9945,20.7112C74.3058,20.9019,71.9255,21.4145,73.5655,20.3299C74.7977,19.5165,76.9577,19.4953,78.4149,19.2284Z" fill="#F5A623" opacity="0.250093"/>
                    <path id="Path-24" d="M106.874,26.4142C106.108,28.8442,102.339,29.5311,99.6175,30C99.4242,29.666,99.2719,29.3079,99.164,28.9342C98.9916,28.1307,98.9548,27.302,99.0552,26.4853C99.1731,24.7421,99.3364,23.0053,99.545,21.2747C99.8352,18.8637,100.234,16.3958,101.463,14.3353C102.017,13.4049,102.755,12.6088,103.627,12C109.931,12,107.854,23.2926,106.874,26.4142Z" fill="#000000" opacity="0.250093"/>
                    <path id="Path-25" d="M101,38.3637C99.6444,38.897,98.2463,39.3167,96.8203,39.6186C93.3766,40.3408,88.947,40.4175,88.1883,36.3506C86.9435,29.5437,92.2772,28,92.2772,28L98.5149,31.6562L101,38.3637Z" fill="#363340"/>
                    <path id="Path-26" d="M88.412,39.9664C87.6817,41.1963,82.4585,41.6981,79.1601,41.889C78.5217,41.9245,77.951,41.9512,77.5061,41.9689L76.4614,42C76.1084,42,64.2449,42,65.0381,34.5184C65.4346,30.8065,68.1188,29.5011,70.7256,29.1237C72.4593,28.9084,74.2207,28.9745,75.9294,29.3191C75.9294,29.3191,84.3398,29.8874,86.7676,31.4281C88.0106,32.214,88.7022,33.9723,88.915,35.735C89.1278,37.4089,88.9343,39.0962,88.412,39.9664Z" fill="#363340"/>
                    <path id="Path-27" d="M31,13.2971C29.2141,14.4988,27.2622,14.3466,25.3989,11.3607C24.5045,10.0633,24.0191,8.55037,24,7C25.7528,7.28862,27.6051,7.6507,28.3681,8.01278C29.1311,8.37487,30.2757,10.731,31,13.2971Z" fill="#F5A623" opacity="0.250093"/>
                    <path id="Path-28" d="M30.4826,18.8033C28.8679,20.713,20.6541,20.0508,20.3974,18.8033C20.2074,18.327,19.8958,17.9055,19.4921,17.5785C18.4,16.5216,16.6079,15.1471,15.6045,13.5685C15.4014,13.2553,15.2324,12.9223,15.1005,12.575C14.0738,9.85329,21.2515,7,21.2515,7C21.2515,7,26.8051,7.6759,28.1725,8.36087C29.5399,9.04584,32.0973,16.8935,30.4826,18.8033Z" fill="#363340"/>
                    <path id="Path-29" d="M17,15C18.5965,15.2605,19.8188,16.4828,20,18C19.1573,17.2093,17.7743,16.181,17,15Z" fill="#F5A623" opacity="0.196568"/>
                    <path id="Path-30" d="M7.31503,20.6851C7.11656,20.5232,7,20.2708,7,20.003C7,17.9764,12.6103,14.1324,12.9114,14.0926C18.0724,13.4453,19.6614,16.3134,19.9394,18.8976C20.0939,20.0896,19.9517,21.3043,19.5271,22.4179C18.7627,23.8768,9.17741,22.3283,7.31503,20.6851Z" fill="#363340"/>
                    <path id="Path-31" d="M12.3105,21.6868C12.1124,21.5227,11.9975,21.2682,12,20.9995C12,18.9775,17.6123,15.1276,17.9089,15.0928C23.0717,14.4453,24.6613,17.309,24.9394,19.8988C25.094,21.0911,24.9516,22.3061,24.5269,23.42C23.7622,24.8742,14.1782,23.3303,12.3105,21.6868Z" fill="#363340"/>
                    <path id="Path-32" d="M7.3152,20.3252C7.11662,20.2081,7,20.0255,7,19.8317C10.0685,18.8663,13.4894,19.5255,13.4894,19.5255C15.5899,19.0905,17.7676,18.9238,19.937,19.032C20.0945,19.8937,19.9554,20.7725,19.5337,21.5789C18.7689,22.6344,9.17857,21.514,7.3152,20.3252Z" fill="#F5A623" opacity="0.196568"/>
                    <path id="Path-33" d="M28.9962,31.1201C28.756,31.4692,28.4961,31.803,28.2179,32.1197C26.8212,33.7357,25.2137,35.1373,23.4427,36.283C21.9863,37.2377,18.7296,37.1377,15.1244,36.5729C9.06476,35.6233,2.02619,33.3692,0.932685,32.6245C-0.815018,31.435,-0.117847,27.2217,3.1197,22.6285C6.35725,18.0353,12.8992,19.7346,12.8992,19.7346C29.6743,15.4763,28.9962,31.1201,28.9962,31.1201Z" fill="#363340"/>
                    <path id="Path-34" d="M28,32.1251C26.7399,33.7393,25.2894,35.1394,23.6915,36.2838C22.3774,37.2374,19.4391,37.1375,16.1862,36.5734C16.0153,35.5088,15.9618,34.4235,16.0267,33.3433C16.3413,25.6648,21.3865,27.1077,21.3865,27.1077C21.3865,27.1077,25.626,29.2994,28,32.1251Z" fill="#000000" opacity="0.1"/>
                    <path id="Path-35" d="M23.3543,38.813C22.8073,38.9349,22.247,38.9951,21.685,38.9924C18.7491,38.9096,14.663,39.9124,15.0221,32.8468C15.3812,25.7813,21.059,27.0969,21.059,27.0969C23.0769,27.9881,24.9966,29.0667,26.7901,30.3169C27.882,31.0584,28.8337,31.9698,29.6047,33.0124C31.4051,35.6758,26.6591,38.146,23.3543,38.813Z" fill="#363340"/>
                    <path id="Path-36" d="M109.524,15.4548C108.665,17.4286,107.824,18.1822,107,17.9634C107.311,15.2284,107.852,12.5551,108.614,10C109.562,11.0161,110.643,12.8635,109.524,15.4548Z" fill="#F5A623" opacity="0.196568"/>
                    <path id="Path-37" d="M130,14.735C130,14.735,122.697,23.5696,122.35,23.9177C122.084,24.1811,114.206,26.0863,109.666,25.997C108.322,25.9687,107.292,25.7664,106.817,25.296C104.737,23.2262,106.983,13.7518,109.59,9.41923C112.197,5.08663,118.546,7.89506,118.546,7.89506C119.107,7.80097,122.407,9.80498,125.327,11.6584C127.792,13.2485,130,14.735,130,14.735Z" fill="#363340"/>
                    <path id="Path-38" d="M130,13.7854C130,13.7854,122.816,21.7962,122.475,22.1118C122.214,22.3507,114.465,24.0783,110,23.9972C110.084,22.0265,112.214,19.9919,112.214,19.9919C112.214,19.9919,118.118,18.8572,120.766,14.6556C121.051,14.2013,121.363,13.7613,121.7,13.3375C122.601,12.1999,123.899,11.3756,125.381,11C127.828,12.4375,130,13.7854,130,13.7854Z" fill="#F5A623" opacity="0.250093"/>
                    <path id="Path-39" d="M137.877,30.2077C137.401,30.5339,136.449,30.7514,135.183,30.8743C131.024,31.2713,123.318,30.6852,116.741,29.7161C116.046,29.6121,115.366,29.5081,114.699,29.3994C105.814,27.9245,112.258,21.2262,112.258,21.2262C112.258,21.2262,118.274,19.964,120.972,15.3078C121.262,14.8052,121.579,14.3191,121.924,13.8519C123.144,12.1935,125.04,11.1556,127.104,11.0161C129.167,10.8766,131.187,11.6498,132.623,13.1286C135.926,16.5085,140.138,20.7346,141.965,22.2C145.187,24.7999,140.052,28.7045,137.877,30.2077Z" fill="#363340"/>
                    <path id="Path-40" d="M146.87,41.2104C146.394,41.5366,145.442,41.7541,144.177,41.8723C140.018,42.2742,132.319,41.6832,125.738,40.7187C125.043,40.6147,124.363,40.5107,123.697,40.3972C114.813,38.9269,121.26,32.2228,121.26,32.2228C121.26,32.2228,127.27,30.9652,129.973,26.3082C130.263,25.8046,130.581,25.3169,130.925,24.8473C132.148,23.1914,134.044,22.1555,136.106,22.0161C138.169,21.8767,140.188,22.6479,141.626,24.1239C144.924,27.5091,149.135,31.7358,150.967,33.2014C154.188,35.7876,149.044,39.707,146.87,41.2104Z" fill="#363340"/>
                    <path id="Path-41" d="M119,35.3621C117.752,35.8546,116.466,36.25,115.156,36.5445C111.671,37.3298,106.968,37.5555,106.19,33.3493C104.939,26.5435,110.284,25,110.284,25L116.53,28.6556L117.462,31.1739L119,35.3621Z" fill="#363340"/>
                    <path id="Path-42" d="M113,31.363C111.751,31.8531,110.466,32.2484,109.156,32.5455C105.671,33.3308,100.968,33.552,100.19,29.3499C98.9387,22.5436,104.284,21,104.284,21L110.53,24.6559L111.462,27.1744L113,31.363Z" fill="#363340"/>
                    <path id="Path-43" d="M107,35.3603C105.752,35.8533,104.467,36.2502,103.157,36.5476C99.6733,37.3285,94.9708,37.5543,94.1885,33.3469C92.9424,26.5439,98.2816,25,98.2816,25L104.526,28.6566L105.463,31.1756L107,35.3603Z" fill="#363340"/>
                    <path id="Path-44" d="M119,33.1193C118.001,33.4861,116.973,33.7806,115.925,34L115.288,33.0824C115.132,32.8567,115.035,32.5997,115.008,32.3328C114.922,31.4956,115.529,30.732,116.42,30.558C116.907,30.4691,117.365,30.2782,117.759,30L119,33.1193Z" fill="#F5A623" opacity="0.250093"/>
                    <path id="Path-45" d="M135.697,42.9617C133.441,47.1122,125.981,46.2355,122.779,44.8521C121.843,44.4503,121.286,44.0074,121.305,43.6329C121.356,42.6193,118.572,38.2086,116.376,34.8891C115.96,34.2684,115.884,33.4869,116.174,32.801C116.464,32.1151,117.083,31.6133,117.827,31.4601C119.205,31.1989,120.352,30.2739,120.874,29.0036C122.747,24.8623,129.702,26.2092,129.702,26.2092C136.643,27.5105,138.613,37.615,135.697,42.9617Z" fill="#363340"/>
                    <path id="Path-46" d="M100,37.5816C99.027,38.1844,98.0235,38.6588,97,39C97,38.4898,97,37.949,97.0228,37.4235C97.1217,34.8543,97.5265,32.3366,98.2163,30L100,37.5816Z" fill="#F5A623" opacity="0.250093"/>
                    <path id="Path-66" d="M120.979,43C120.013,42.5975,119.439,42.1538,119.458,41.7788C119.511,40.7634,116.64,36.3451,114.376,33.02C114.165,32.7141,114.036,32.364,114,32C120.153,35.2154,121.172,39.899,120.979,43Z" fill="#F5A623" opacity="0.250093"/>
                    <path id="Path-67" d="M120.169,47.845C119.905,47.6699,106.932,50.5292,101.321,47.845L101.211,47.7882C97.86,46.103,96.7781,42.0649,97.0366,38.0364C97.1865,35.594,97.8089,33.2027,98.8701,30.9923C101.412,25.9223,107.42,32.1285,107.42,32.1285L112.806,32.5072C124.295,37.7902,120.427,48.0202,120.169,47.845Z" fill="#363340"/>
                    <path id="Path-68" d="M100.629,48C97.7412,46.2718,96.8088,42.1311,97.0315,38C97.7578,38.1959,98.4537,38.5234,99.0944,38.9709C101.058,40.5874,101.376,45.8058,100.629,48Z" fill="#F5A623" opacity="0.250093"/>
                    <path id="Path-69" d="M87.932,37.3263C87.932,37.3263,77.8629,35.0498,77.0407,42.5227C76.2186,49.9956,88.1109,50,88.464,50C88.817,50,99.3553,49.7559,100.414,47.9676C101.474,46.1793,101.193,40.9695,98.7701,39.4341C96.3471,37.8987,87.932,37.3263,87.932,37.3263Z" fill="#363340"/>
                    <path id="Path-70" d="M22,39C22.4754,37.093,23.8401,34.6703,24.9238,31.3524C25.073,30.8673,25.3081,30.4099,25.619,30C26.7691,30.7843,27.7715,31.7481,28.5836,32.8508C30.48,35.6822,25.4809,38.2946,22,39Z" fill="#000000" opacity="0.1"/>
                    <path id="Path-71" d="M40.6531,46.6341C40.2378,46.8371,39.7885,46.952,39.331,46.9722C35.08,47.3392,25.0998,43.9875,23.594,41.9495C21.9092,39.6506,24.1816,36.637,25.7792,31.2376C27.3768,25.8382,35.1902,28.8228,35.1902,28.8228C36.953,28.0743,40.9056,33.6524,42.1635,35.2896C42.4489,35.7346,42.6414,36.2383,42.7281,36.7674C43.357,39.6941,42.9852,45.335,40.6531,46.6341Z" fill="#363340"/>
                    <path id="Path-72" d="M55.6533,44.6343C55.2373,44.835,54.7885,44.9497,54.3314,44.9722C50.0808,45.3392,40.1016,41.9835,38.5914,39.946C36.9113,37.6477,39.1835,34.6348,40.7763,29.2368C42.3691,23.8387,50.1909,26.8226,50.1909,26.8226C51.9536,26.0791,55.9058,31.6509,57.1635,33.2926C57.4498,33.737,57.6423,34.2408,57.7281,34.77C58.357,37.6912,57.9852,43.3403,55.6533,44.6343Z" fill="#363340"/>
                    <path id="Path-73" d="M41.217,46.6687C40.9015,46.8676,40.5602,46.9802,40.2126,47C39.3337,44.0989,41.374,39.6976,42.7934,37C43.2713,39.868,42.9888,45.3956,41.217,46.6687Z" fill="#F5A623" opacity="0.250093"/>
                    <path id="Path-74" d="M70.1264,30.3093C70.1264,30.3093,64.8661,25.9273,52.9043,33.1964C52.9043,33.1964,46.7959,33.145,44.7567,35.9059C42.7175,38.6668,36.4422,46.9402,42.7221,49.3882C49.0019,51.8361,70.2098,55.7743,75.4701,50.0422C79.7292,45.4079,77.5417,40.4187,76.5499,38.6808C76.3226,38.2788,75.9614,37.971,75.5303,37.8119C74.1399,37.284,70.752,36.0227,70.474,35.9059C70.1959,35.7891,70.1264,30.3093,70.1264,30.3093Z" fill="#363340"/>
                </g>
            </g>
            <path id="Path-76" d="M993,219.168C969.484,201.83,948.805,179.809,930.963,153.106C913.121,126.403,887.504,77.0344,854.11,5C829.921,52.1721,810.416,99.275,727.695,203.967C672.548,273.761,609.983,339.106,540,400" stroke="#000000" fill-opacity="0" stroke-width="5" transform="translate(-1016.8,-284.145)"/>
        </g>
        <path id="Rectangle" d="M0.5,461.982C319.384,419.526,1666.58,439.254,1919.85,507.46L1920,604L0,603L0.5,461.982Z" fill="#000000" fill-rule="evenodd" stroke="none" stroke-width="1" transform="translate(272,0)"/>
        <path id="Path-47" d="M139.826,187C137.159,182.489,135.826,178.065,135.826,173.726C135.826,169.387,137.101,164.478,139.652,159C138.927,163.58,138.579,168.246,138.609,173C138.638,177.754,139.044,182.42,139.826,187Z" fill="#ffffff" fill-opacity="0.3" transform="translate(928.993,99.0323)"/>
        <path id="Path-11-Copy-3" d="M-87.8261,187C-90.4928,182.489,-91.8261,178.065,-91.8261,173.726C-91.8261,169.387,-90.5507,156.478,-88,151C-88.7252,155.58,-89.073,160.247,-89.0435,165C-89.014,169.754,-88.6082,177.087,-87.8261,187Z" fill="#ffffff" fill-opacity="0.3" transform="translate(974.993,176.032) scale(-1,1) translate(-46,-77)"/>
        <path id="Path-11-Copy-4" d="M157.446,167C154.779,162.489,153.826,149.065,153.826,144.726C153.826,140.387,155.102,127.478,157.653,122C158.405,126.58,158.795,131.247,158.825,136C158.854,140.754,158.395,151.087,157.446,167Z" fill="#ffffff" fill-opacity="0.3" transform="translate(928.993,99.0323)"/>
        <path id="Rectangle-Copy-3" d="M77.194,118.223C76.8811,98.7933,86.0349,83.6521,104.655,72.799L104.655,72.799C106.519,71.7129,108.878,72.0031,110.423,73.5085C125.327,88.0344,134.142,102.939,136.867,118.223C139.421,132.547,133.847,145.539,116.642,154C115.35,154.636,112.53,155.125,108.184,155.467C108.184,155.467,107.707,155.469,107.475,155.417C87.6159,151.003,77.5223,138.605,77.194,118.223Z" fill="#FFFFFF" fill-rule="evenodd" stroke="none" stroke-width="1" transform="translate(1087.31,260.759) scale(-1,1) translate(-107.321,-113.267)"/>
        <path id="Rectangle-Copy-4" d="M95.261,110.758C97.8158,103.756,101.332,96.7626,105.81,89.778L105.81,89.778C106.525,88.6622,108.01,88.3375,109.125,89.0529C109.233,89.1221,109.336,89.1998,109.431,89.2853C118.223,97.1578,123.436,105.674,125.069,114.833C126.623,123.549,122.202,132.74,111.806,142.407L111.806,142.407C109.783,144.287,106.619,144.172,104.739,142.15C104.526,141.921,104.336,141.673,104.169,141.408C95.6908,127.935,92.7214,117.719,95.261,110.758Z" fill="#009FFF" fill-opacity="0.251666" fill-rule="evenodd" stroke="none" stroke-width="1" transform="translate(979.993,147.492)"/>
        <path id="Rectangle-Copy-6" d="M100.767,127.893C101.808,125.041,104.921,120.941,108.148,121.152C111.57,121.377,115.102,126.108,115.787,129.946C116.433,133.57,115.009,137.58,111.516,141.976L111.516,141.976C109.866,144.051,106.847,144.396,104.771,142.747C104.217,142.306,103.767,141.748,103.453,141.113C100.575,135.279,99.6798,130.873,100.767,127.893Z" fill="#009FFF" fill-opacity="0.254425" fill-rule="evenodd" stroke="none" stroke-width="1" transform="translate(1088.12,281.584) scale(-1,1) translate(-108.129,-134.093)"/>
        <path id="Path-48" d="M811,362.792L703,563C483.635,690.879,-87.153,313.753,187,142C187,142,273.5,156.5,496,183L571,295C585.136,295.9,613.831,300.477,632.831,298.335" fill="url(#Gradient-7)" fill-opacity="0.95" fill-rule="evenodd" opacity="0.9" stroke="none" stroke-width="1" transform="translate(272,0)"/>
        <g transform="translate(994,275.765) translate(-90.0001,-106.807)">
            <g id="Path-49" fill-rule="nonzero" stroke="none" stroke-width="1" fill="none"/>
            <path id="Path-50" d="M53.5563,93.6814L92.034,106.035C92.034,106.035,101.54,110.102,96.5534,123.549C91.5666,136.996,76.77,164.681,76.77,164.681L52,152.014C52,152.014,76.3027,99.3115,53.5563,93.6814Z" fill="#565988" fill-rule="nonzero" stroke="none" stroke-width="1"/>
            <path id="Path-51" d="M53.5563,93.6814L92.034,106.035C92.034,106.035,101.54,110.102,96.5534,123.549C91.5666,136.996,76.77,164.681,76.77,164.681L52,152.014C52,152.014,76.3027,99.3115,53.5563,93.6814Z" fill="#000000" fill-rule="nonzero" stroke="none" stroke-width="1"/>
            <path id="Path-52" d="M49.5563,97.6814L88.034,110.035C88.034,110.035,97.5401,114.102,92.5534,127.554C87.5666,141.005,72.77,168.681,72.77,168.681L48,156.014C48,156.014,72.3027,103.312,49.5563,97.6814Z" fill="#565988" fill-rule="nonzero" stroke="none" stroke-width="1"/>
            <path id="Path-53" d="M76.7011,36.3327C74.2132,37.7087,72.3205,40.4461,70.9068,43.4741C68.0934,49.4964,67.1866,56.6814,67.1866,56.6814C67.1866,56.6814,33.2395,52.0787,44.1676,46.7493C47.8353,45.0272,51.0827,42.4652,53.6682,39.2542C56.4584,35.698,57.1885,32.699,57.1885,32.699C57.1885,32.699,84.1416,32.2145,76.7011,36.3327Z" fill="#FFDBDB" fill-rule="nonzero" stroke="none" stroke-width="1"/>
            <path id="Path-54" d="M53.0202,44.6814C51.2004,43.8785,47.2814,44.1291,42.7107,47.2616C28.0098,57.3869,17.2203,72.2237,12.1327,89.3101C10.8228,93.6798,9.8263,98.0308,9.52689,101.822C8.35729,116.527,-11.3948,142.437,9.65788,148.721C30.7106,155.004,47.5528,128.413,47.5528,128.413L56.5867,112.54C59.6011,107.247,62.0624,101.66,63.9318,95.8646L70.7997,74.5766C73.5202,66.2907,71.5412,57.1846,65.6254,50.7676C64.7654,49.8221,63.7874,48.9906,62.7154,48.2933C61.2028,47.3596,57.971,46.1557,53.0202,44.6814Z" fill="#2A2A2A" fill-rule="nonzero" stroke="none" stroke-width="1"/>
            <path id="Path-55" d="M79.6672,37.1102C77.1128,38.4023,75.1696,40.9729,73.7182,43.8164C67.5021,45.8189,60.632,44.2823,56,39.8536C58.8647,36.5142,59.6143,33.6979,59.6143,33.6979C59.6143,33.6979,87.3064,33.243,79.6672,37.1102Z" fill="#000000" opacity="0.1" fill-rule="nonzero" stroke="none" stroke-width="1"/>
            <ellipse id="Oval-3" fill="#FFDBDB" rx="17" ry="17" fill-rule="nonzero" stroke="none" stroke-width="1" transform="translate(0,7.87545e-07) translate(67,26.6814)"/>
            <path id="Path-56" d="M82.821,12.4962C81.4292,17.2976,74.5542,17.6792,73.1671,23.0414C72.5176,25.5528,72.9722,28.658,71.0238,30.3401C69.3862,31.7537,66.9554,31.339,64.8075,31.3909C62.6596,31.4427,60.0061,32.8044,60.3308,34.9483C60.4607,35.8059,62.0591,38.5362,62.1705,39.3938C62.3468,40.7367,60.2427,42.9665,58.9623,43.3811C57.6819,43.7958,56.3226,43.5932,55.0052,43.3811L50.4229,42.0477C50.1159,41.9659,46.9775,37.0355,44.4898,33.6814C42.1895,30.5799,40.5084,26.0876,40.6473,24.8272C40.8972,22.8385,41.1138,9.864,49.0796,3.93333C57.0454,-1.99735,71.2747,0.426698,73.2784,0.834222C77.3469,1.69179,84.1941,7.70416,82.821,12.4962Z" fill="#222222" fill-rule="nonzero" stroke="none" stroke-width="1"/>
            <path id="Path-57" d="M103.578,116.646L102.309,118.412L100.679,120.681L93,120.207L93.6388,117.087L94.3776,113.483C94.3776,113.483,96.8417,96.7845,102.2,103.114C107.559,109.443,103.578,116.646,103.578,116.646Z" fill="#FFDBDB" fill-rule="nonzero" stroke="none" stroke-width="1"/>
            <path id="Path-58" d="M142.915,179.681C142.915,179.681,149.329,183.709,150.664,183.331C151.999,182.952,149.079,191.236,146.789,191.62C144.5,192.003,142,190.479,142,190.479L142.915,179.681Z" fill="#595C8A" fill-rule="nonzero" stroke="none" stroke-width="1"/>
            <path id="Path-59" d="M148.329,181.681C148.661,181.172,149.418,181.736,150.599,183.374C150.599,183.374,164.854,184.066,167.048,184.68C168.389,184.984,169.761,185.139,171.137,185.141C173.443,185.174,175.681,185.909,177.543,187.244C179.996,189.048,181.773,192,176.998,196.091C168.538,203.356,145.98,199.822,145.98,199.822L143,195.053C146.221,186.648,147.998,182.191,148.329,181.681Z" fill="#4A4A4A" fill-rule="nonzero" stroke="none" stroke-width="1"/>
            <path id="Path-60" d="M76.84,176.322L110.03,175.694C110.03,175.694,139.48,174.748,148.048,189.401C152.984,197.839,147.637,203.038,142.214,205.945C138.543,207.858,134.484,208.885,130.355,208.947C125.42,209.042,120.502,209.557,115.653,210.488C109.963,211.644,104.137,211.963,98.3572,211.433L67,208.597L76.84,176.322Z" fill="#000000" fill-rule="nonzero" stroke="none" stroke-width="1"/>
            <path id="Path-61" d="M146,181.69L145.139,186.791L124.137,177.253L123.992,176.346C123.992,176.346,122.325,172.881,118.991,165.952L101.142,188.703C101.142,188.703,86.3664,207.233,74.0728,209.464C72.836,209.703,71.5695,209.745,70.3195,209.59C57.5229,207.874,77.2347,165.325,77.2347,165.325L82.385,162.384L124.733,138.206C124.733,138.206,138.396,133.68,140.412,151.218C142.428,168.757,142.74,175.144,142.74,175.144L146,181.69Z" fill="#131313" fill-rule="nonzero" stroke="none" stroke-width="1"/>
            <path id="Path-62" d="M26.0898,97.6814C26.0898,97.6814,5.30338,130.833,12.5236,152.605C12.5236,152.605,19.9612,160.107,27.075,146.593C34.1888,133.079,26.0898,97.6814,26.0898,97.6814Z" fill="#4A90E2" fill-rule="nonzero" stroke="none" stroke-width="1"/>
            <path id="Path-63" d="M26.0898,97.6814C26.0898,97.6814,5.30338,130.833,12.5236,152.605C12.5236,152.605,19.9612,160.107,27.075,146.593C34.1888,133.079,26.0898,97.6814,26.0898,97.6814Z" fill="#4A90E2" opacity="0.1" fill-rule="nonzero" stroke="none" stroke-width="1"/>
            <ellipse id="Oval-4" fill="#FFCCD0" rx="19" ry="19" fill-rule="nonzero" stroke="none" stroke-width="1" transform="translate(0,7.87545e-07) translate(69,62.6814)"/>
            <path id="Path-64" d="M66.8519,213.608C11,214.222,21.5144,159.593,21.4304,156.438C21.1433,145.057,20.5644,116.566,21.5575,105.311C22.7576,91.7167,42.6657,77.2461,45.3436,77.6915C45.4499,77.6983,45.5464,77.7559,45.6025,77.8461C46.7038,79.7587,50.7183,81.8681,50.7183,81.8681C51.2972,81.7415,52.3468,82.0931,53.5751,82.679C54.1775,82.965,54.827,83.3072,55.4859,83.6775C58.498,85.3744,61.6843,87.6338,61.6843,87.6338L61.5619,87.7416L57.665,91.1776L57.4814,91.3417L58.1686,92.3636L62.3479,98.584C66.8935,104.082,69.6004,110.857,70.0899,117.962L75.2246,130.22C78.5429,138.143,80.5809,146.54,81.2629,155.097L81.9783,164.055C81.9783,164.055,86.5052,173.601,81.9783,188.431C77.4514,203.26,122.704,212.994,66.8519,213.608Z" fill="#004478" fill-rule="nonzero" stroke="none" stroke-width="1"/>
            <path id="Path-65" d="M38.748,126.943C38.748,126.943,41.0743,131.153,49.942,140.975C58.8096,150.797,70.7433,168.262,83.6122,160.933C96.481,153.604,99.8959,142.692,99.8959,142.692L102.999,126.008C102.999,126.008,103.311,109.483,91.8332,119.151C89.5172,122.176,87.9253,125.697,87.1806,129.441C85.9384,135.676,82.0629,134.895,82.0629,134.895C82.0629,134.895,78.6602,128.594,74.1408,123.213C70.3728,118.726,67.9638,107.797,67.1875,106.678C57.9383,93.3621,34.5561,110.175,38.4875,125.928C38.5526,126.265,38.6596,126.602,38.748,126.943Z" fill="#004478" fill-rule="nonzero" stroke="none" stroke-width="1"/>
            <path id="Path-78" d="M103,119.001L101.249,121.681L93,121.121L93.6863,117.436C99.2885,112.333,101.861,115.188,103,119.001Z" fill="#000000" opacity="0.1" fill-rule="nonzero" stroke="none" stroke-width="1"/>
            <path id="Path-79" d="M47,72.6814C47.4356,71.8159,48.1369,71.1145,49,70.6814C48.3475,71.3533,47.6834,72.0251,47,72.6814Z" fill="#000000" opacity="0.1" fill-rule="nonzero" stroke="none" stroke-width="1"/>
            <path id="Path-80" d="M87.5544,90.2545C86.3318,93.8297,90.7083,104.064,81.9166,105.913C73.1248,107.762,69,106.828,57,96.6814C45,86.5353,34.1107,87.7629,30,80.4798C25.8893,73.1968,36.5513,70.8561,38.5259,68.4695C40.2237,66.4168,56.0065,33.6814,76.0033,40.1814C96,46.6814,86.83,70.6229,86.7285,72.5248C86.7078,72.8704,86.7078,73.217,86.7285,73.5626C86.8623,75.5148,87.9281,77.275,88.4955,79.154C89.5659,82.7795,88.7816,86.6839,87.5544,90.2545Z" fill="#090909" fill-rule="nonzero" stroke="none" stroke-width="1"/>
        </g>
        <g id="Main-3" fill="none" fill-rule="evenodd" stroke="none" stroke-linecap="round" stroke-linejoin="round" stroke-width="1" transform="translate(272,0)">
            <g id="Home-2" transform="translate(-264,-516)">
                <g id="Camp-2" transform="translate(-8,517)"/>
            </g>
        </g>
        <ellipse rx="142.541" ry="142.541" fill="#ffffff" fill-opacity="0.1" filter="none" stroke="none" transform="translate(1089.46,253.378) scale(0.6,0.6)"/>
        <g id="Layer-1" transform="translate(272,0)"/>
        <g id="Layer-2" transform="translate(272,0)"/>
        <g id="Layer-3" transform="translate(2192,285.5)">
            <g id="Object" opacity="1"/>
        </g>
        <g id="Layer-4" transform="translate(2192,57.5)">
            <g id="Object-2" opacity="0.1">
                <path fill="none" stroke="#000000" stroke-opacity="1" stroke-width="1" stroke-miterlimit="4" stroke-linecap="square" stroke-linejoin="miter"/>
            </g>
        </g>
        <g id="Layer-5" transform="translate(2192,57.5)">
            <g id="Object-3" opacity="0.1"/>
        </g>
        <g id="Layer-6" transform="translate(2192,57.5)">
            <g id="Object-4" opacity="0.1"/>
        </g>
        <g id="Layer-7" transform="translate(2192,57.5)">
            <g id="Object-5" opacity="0.1"/>
        </g>
    </g>
    <g transform="translate(1454.07,865.607) translate(-551.248,-408.65)">
        <g transform="translate(494.211,408.65) translate(-603.254,-408.65)">
            <path d="M-638.997,1738.5L-753,1738.5L-753,1131L-742.5,1131C-741.108,1111.07,-743.063,1090.01,-745.042,1068.69C-748.058,1036.19,-751.13,1003.1,-742.5,972.5C-700.033,959.123,-645.548,996.898,-638,1028.5L-646.5,1046C-597.805,1010.71,-472.091,1173.79,-544.5,1229L-505.5,1221C-496.018,1250.02,-504.124,1274.55,-516.5,1298L-490.5,1303C-427.559,1402.49,-431.685,1486.52,-485.363,1548.85C-485.478,1550.48,-485.603,1552.11,-485.74,1553.74C-479.105,1550.48,-472.087,1547.77,-464.73,1545.66C-464.202,1545.51,-463.446,1545.12,-462.49,1544.63C-458.655,1542.66,-451.598,1539.03,-443.114,1542.41C-438.965,1544.06,-431.501,1552.17,-420.724,1566.74C-430.234,1549.39,-433.203,1540.71,-429.633,1540.72C-374.8,1540.78,-323.625,1570.91,-306.306,1631.31C-296.288,1666.24,-305.185,1706.72,-327.448,1738.36C-307.095,1744.17,-287.155,1748.93,-268.072,1751.57C-260.562,1752.62,-266.981,1767.61,-287.33,1796.56C-286.038,1798.41,-284.745,1800.3,-283.45,1802.23C-261.863,1788.03,-246.663,1779.86,-237.851,1777.7C-210.235,1770.93,-189.481,1773.1,-183.219,1775.89C-120.158,1803.97,-70.8822,1850.24,-38.8247,1905.77C-34.6428,1913.02,-44.1254,1934.32,-67.2729,1969.67C-32.1539,1961.81,-13.5802,1961.05,-11.551,1967.38C-11.2178,1968.42,-10.7478,1969.82,-10.1417,1971.59L-9.99984,1972L-626.5,1972L-626.99,1967.87C-643.092,1832.07,-649.262,1759.95,-645.499,1751.5C-643.448,1746.89,-641.279,1742.56,-638.997,1738.5Z" fill="#000304" fill-opacity="1" fill-rule="evenodd" stroke="#000000" stroke-linecap="square" stroke-width="0" transform="translate(-957.657,-10.9998) rotate(-90) skewY(7.5) scale(1.1,1.1)"/>
        </g>
    </g>
    <path d="M-684.451,1820.32L-798.454,1820.32L-798.454,1212.82L-787.954,1212.82C-786.562,1192.89,-788.517,1171.83,-790.496,1150.51C-793.512,1118.01,-796.584,1084.92,-787.954,1054.32C-745.487,1040.94,-691.002,1078.72,-683.454,1110.32L-691.954,1127.82C-643.259,1092.53,-517.545,1255.61,-589.954,1310.82L-550.954,1302.82C-541.472,1331.84,-549.578,1356.37,-561.954,1379.82L-535.954,1384.82C-473.013,1484.31,-477.139,1568.34,-530.817,1630.67C-530.932,1632.3,-531.057,1633.93,-531.194,1635.56C-524.559,1632.3,-517.541,1629.59,-510.184,1627.48C-509.656,1627.33,-508.9,1626.94,-507.944,1626.45C-504.109,1624.48,-497.052,1620.85,-488.568,1624.23C-484.419,1625.88,-476.955,1633.99,-466.178,1648.56C-475.688,1631.21,-478.657,1622.53,-475.087,1622.54C-420.254,1622.6,-369.079,1652.73,-351.76,1713.13C-341.742,1748.06,-350.639,1788.54,-372.902,1820.18C-352.549,1825.99,-332.609,1830.75,-313.526,1833.39C-306.016,1834.44,-312.435,1849.43,-332.784,1878.38C-331.492,1880.23,-330.199,1882.12,-328.904,1884.05C-307.317,1869.85,-292.117,1861.68,-283.305,1859.52C-255.689,1852.75,-234.935,1854.92,-228.673,1857.71C-165.612,1885.79,-116.337,1932.06,-84.2793,1987.59C-80.0974,1994.84,-89.58,2016.14,-112.727,2051.49C-77.6085,2043.63,-59.0348,2042.87,-57.0056,2049.2C-56.6724,2050.24,-56.2024,2051.64,-55.5963,2053.41L-55.4544,2053.82L-671.954,2053.82L-672.444,2049.69C-688.546,1913.89,-694.716,1841.77,-690.953,1833.32C-688.902,1828.71,-686.733,1824.38,-684.451,1820.32Z" fill="#000000" fill-opacity="1" fill-rule="nonzero" stroke="#ffffff" stroke-linecap="square" stroke-width="0" stroke-opacity="1" transform="translate(-163.887,445.957) rotate(-90) scale(1.1,1.1)"/>
    <path d="M157.5,607.5L0,607.5L0,0L10.5,0C14.014,-50.2889,-3.7927,-107.82,10.5,-158.5C52.9674,-171.877,107.452,-134.102,115,-102.5L106.5,-85C155.195,-120.29,280.909,42.7916,208.5,98L208.5,98L247.5,90C256.982,119.017,248.876,143.552,236.5,167L262.5,172C332.516,323.488,309.174,414.409,217.5,461L274.5,461C256.977,524.529,222.243,576.282,157.5,607.5Z" stroke="#000000" fill="#000b11" fill-opacity="1" stroke-linecap="square" stroke-width="0" transform="translate(-40.652,449.719) scale(1.1,1.1)"/>
    <path id="path-3" d="M710.488,286.996L711.933,288.355C759.394,332.981,783.731,357.413,784.945,361.649C786.597,367.409,787.452,372.766,787.601,377.764L787.612,378.22L788.134,378.45C788.842,378.765,789.558,379.097,790.283,379.445L790.291,379.458C817.825,376.306,831.292,376.118,830.69,378.892C827.751,392.438,809.068,386.398,798.266,383.599L797.965,383.521L799.873,384.642C864.244,423.16,973.703,554.398,916.292,554.398C866.964,554.398,817.473,525.637,787.2,482.742C785.776,485.963,784.048,489.104,782.009,492.127C781.275,493.214,780.274,498.226,775.115,499.933C773.096,500.601,767.888,499.926,759.492,497.907C768.276,501.328,772.016,503.585,770.713,504.677C750.684,521.447,722.78,526.121,697.964,509.383C683.609,499.7,674.461,482.204,672.897,463.839C663.69,467.951,654.957,472.322,647.181,477.2C644.122,479.119,641.872,471.681,640.434,454.885C639.398,454.607,638.347,454.313,637.281,454.003C633.751,465.795,630.708,473.435,628.153,476.92C620.146,487.846,611.909,493.411,608.769,494.311C577.157,503.375,545.004,501.577,516.298,491.126C512.554,489.763,509.492,479.087,507.114,459.096C496.704,472.719,490.159,478.685,487.48,476.996C487.04,476.718,486.439,476.351,485.677,475.892L485.499,475.785L710.488,286.996ZM797.936,383.504L797.941,383.515L797.941,383.515L797.965,383.521L797.936,383.504ZM787.604,378.216L787.613,378.231L787.613,378.231L787.612,378.22L787.604,378.216Z" transform="translate(523.542,1872.49) rotate(-140) scale(1.1,1.1)"/>
    <g transform="translate(186.52,700.307) scale(1.1,1.1) translate(-223.409,-389.075)">
        <path d="M105.646,645.682L-46.3636,645.682L-46.3636,38.1818L-35.8636,38.1818C-34.4712,18.2557,-36.4262,-2.80751,-38.4054,-24.1309L-38.4054,-24.131C-41.4212,-56.6229,-44.4931,-89.7192,-35.8636,-120.318C6.6038,-133.695,61.0884,-95.9202,68.6364,-64.3182L60.1364,-46.8182C108.831,-82.1082,234.545,80.9734,162.136,136.182L201.136,128.182C210.618,157.199,202.512,181.734,190.136,205.182L216.136,210.182C268.454,323.377,268.645,402.756,227.152,455.091C241.991,461.689,253.983,474.236,259.294,492.756C264.067,509.401,259.828,528.684,249.222,543.757C258.918,546.525,268.417,548.791,277.509,550.052C281.086,550.548,278.029,557.692,268.334,571.483C268.949,572.362,269.565,573.263,270.183,574.186C280.466,567.422,287.708,563.525,291.906,562.498C305.063,559.275,314.95,560.306,317.934,561.635C347.976,575.011,371.451,597.056,386.723,623.514C388.715,626.965,384.198,637.111,373.17,653.954C389.901,650.21,398.75,649.846,399.716,652.862C399.875,653.358,400.099,654.025,400.388,654.867L400.456,655.063L106.753,655.064L106.519,653.094C106.221,650.577,105.93,648.107,105.646,645.682Z" stroke="#ffffff" fill="#000000" fill-opacity="1" stroke-linecap="square" stroke-width="0" fill-rule="evenodd" stroke-opacity="1" transform="translate(16.8892,161.268) rotate(-3.2)"/>
    </g>
    <use id="Combined-Shape-2" fill="#001019" transform="translate(1023.63,255.148) rotate(130)"/>
</svg>
