<?xml version="1.0" encoding="UTF-8"?>
<svg width="512px" height="512px" viewBox="0 0 512 512" version="1.1" xmlns="http://www.w3.org/2000/svg" xmlns:xlink="http://www.w3.org/1999/xlink">
    <title>Baghaei</title>
    <defs>
        <path d="M182.052699,1.37783036 C187.481346,0.472043644 193.059096,0 198.747099,0 L210.398471,0 C273.507053,0 324.666667,51.159614 324.666667,114.268196 C324.666667,137.434245 317.892294,159.018054 306.216491,177.146684 L306.352838,177.157509 C304.682481,179.945805 302.961571,182.74204 301.190094,185.546182 C312.646272,189.439434 323.546214,194.539814 333.738053,200.694366 C336.316761,196.521128 338.795777,192.357251 341.174652,188.203666 C341.930558,186.883832 342.498943,185.507902 342.88818,184.106695 L343.769103,184.377318 C411.723391,205.784081 461,269.301199 461,344.327485 C461,436.930458 385.930458,512 293.327485,512 L152.603509,512 C104.359671,512 64.047226,478.041667 54.2651516,432.723978 C107.222942,394.836027 153.850979,355.767455 194.14442,315.503396 C216.746485,292.917813 236.680803,270.630382 253.941869,248.629219 C242.116475,262.351062 229.170404,276.242255 215.102696,290.299704 C180.959895,324.417609 141.975413,357.751179 98.1443933,390.290261 L98.1443303,354.272754 C83.4111774,366.384515 68.030081,378.390516 52.0008036,390.290261 L52,230.549708 L52,100.603509 C52,45.0417251 97.0417251,0 152.603509,0 L164.254881,0 C170.308991,0 176.253136,0.470815793 182.052699,1.37783036 Z" id="path-1"></path>
        <linearGradient x1="50%" y1="0%" x2="50%" y2="100%" id="linearGradient-2">
            <stop stop-color="#323232" offset="0%"></stop>
            <stop stop-color="#000000" offset="100%"></stop>
        </linearGradient>
    </defs>
    <g id="Baghaei" stroke="none" fill="none" xlink:href="#path-1" fill-rule="evenodd" stroke-width="1">
        <g id="Group" transform="translate(52, 0)">
            <path d="M290.88818,184.106695 L291.769103,184.377318 C359.723391,205.784081 409,269.301199 409,344.327485 C409,436.930458 333.930458,512 241.327485,512 L146.747099,512 C98.5032603,512 58.1908158,478.041667 48.4087414,432.723978 C101.366532,394.836027 147.994568,355.767455 188.288009,315.503396 C231.831261,271.991897 265.47326,229.586983 289.174652,188.203666 C289.930558,186.883832 290.498943,185.507902 290.88818,184.106695 Z M158.398471,0 C221.507053,0 272.666667,51.159614 272.666667,114.268196 C272.666667,137.434245 265.892294,159.018054 254.216491,177.146684 L254.352838,177.157509 C232.555562,213.543275 202.149826,251.281048 163.102696,290.299704 C128.959895,324.417609 89.9754128,357.751179 46.1443933,390.290261 L46.1435897,230.549708 L46.1435897,100.603509 C46.1435897,45.0417251 91.1853148,0 146.747099,0 L158.398471,0 Z" id="Combined-Shape" fill="url(#linearGradient-2)"></path>
            <path d="M244.74459,184.106695 L245.625514,184.377318 C313.579801,205.784081 362.85641,269.301199 362.85641,344.327485 C362.85641,436.930458 287.786868,512 195.183896,512 L100.603509,512 C52.3596706,512 12.047226,478.041667 2.26515163,432.723978 C55.2229421,394.836027 101.850979,355.767455 142.14442,315.503396 C185.687671,271.991897 219.32967,229.586983 243.031062,188.203666 C243.786968,186.883832 244.355353,185.507902 244.74459,184.106695 Z M112.254881,0 C175.363463,0 226.523077,51.159614 226.523077,114.268196 C226.523077,137.434245 219.748705,159.018054 208.072901,177.146684 L208.209249,177.157509 C186.411973,213.543275 156.006236,251.281048 116.959106,290.299704 C82.8163048,324.417609 43.8318231,357.751179 0.000803562234,390.290261 L0,230.549708 L0,100.603509 C0,45.0417251 45.0417251,0 100.603509,0 L112.254881,0 Z" id="Combined-Shape-2"></path>
        </g>
    </g>
</svg>